<svg xmlns="http://www.w3.org/2000/svg" viewBox="0 0 120 120" fill="none">
  <defs>
    <linearGradient id="g1" x1="20" y1="20" x2="100" y2="100" gradientUnits="userSpaceOnUse">
      <stop offset="0%" stop-color="#6366f1"/>
      <stop offset="100%" stop-color="#3b82f6"/>
    </linearGradient>
    <linearGradient id="g2" x1="40" y1="30" x2="80" y2="90" gradientUnits="userSpaceOnUse">
      <stop offset="0%" stop-color="#818cf8" stop-opacity="0.6"/>
      <stop offset="100%" stop-color="#6366f1" stop-opacity="0"/>
    </linearGradient>
    <linearGradient id="g3" x1="60" y1="20" x2="60" y2="100" gradientUnits="userSpaceOnUse">
      <stop offset="0%" stop-color="#a78bfa"/>
      <stop offset="100%" stop-color="#6366f1"/>
    </linearGradient>
  </defs>
  <!-- Outer ring -->
  <circle cx="60" cy="60" r="48" stroke="url(#g1)" stroke-width="2.5" opacity="0.4"/>
  <!-- Middle ring -->
  <circle cx="60" cy="60" r="34" stroke="url(#g1)" stroke-width="2" opacity="0.6"/>
  <!-- Inner ring -->
  <circle cx="60" cy="60" r="20" stroke="url(#g1)" stroke-width="1.8" opacity="0.8"/>
  <!-- Center dot -->
  <circle cx="60" cy="60" r="5" fill="url(#g3)"/>
  <!-- Radar sweep -->
  <path d="M60 60 L60 12 A48 48 0 0 1 98 35 Z" fill="url(#g2)" opacity="0.5"/>
  <!-- Beacon line -->
  <line x1="60" y1="60" x2="95" y2="30" stroke="url(#g3)" stroke-width="2" stroke-linecap="round"/>
  <!-- Dots on rings -->
  <circle cx="60" cy="12" r="3.5" fill="#6366f1"/>
  <circle cx="88" cy="38" r="3" fill="#818cf8"/>
  <circle cx="38" cy="82" r="2.5" fill="#a78bfa" opacity="0.7"/>
  <circle cx="82" cy="75" r="2" fill="#6366f1" opacity="0.5"/>
  <!-- Sparkle -->
  <path d="M98 15 L100 10 L102 15 L107 17 L102 19 L100 24 L98 19 L93 17 Z" fill="#c084fc" opacity="0.9"/>
  <path d="M105 8 L106 5.5 L107 8 L109.5 9 L107 10 L106 12.5 L105 10 L102.5 9 Z" fill="#ddd6fe" opacity="0.7"/>
</svg>
